		<svg xmlns="http://www.w3.org/2000/svg" 
      xmlns:xlink="http://www.w3.org/1999/xlink" 
      version="1.1" 
      width="400" 
      height="105">
			<g>
				<defs id="SvgjsDefs1121"/>
          <g id="SvgjsG1122" featureKey="root"/>
            <g id="SvgjsG1123" featureKey="symbol1" fill="#04cc0a" 
            transform="matrix(1.9886365360465081,0,0,1.9886365360465081,-2.7272730720930163,9.987265872935025)"><g><g><g><path d="M13,18.3c0,0,2.5,4,2.8,5.6l1.1-1.4c0,0,0,0,0,0l0.5,1.8l0.3-0.3c1.5,2.4,3.8,3.9,6.3,3.9c2.6,0,4.9-1.5,6.3-3.9l0.3,0.4     l0.5-1.8l1.1,1.4c0.3-1.7,2.8-5.6,2.8-5.6L34.8,21c2.2-2.4,1.4-5.5,0.3-7.6c-0.8-1.6-1.3-3.3-1.8-5.1c-0.5-2-1.4-3.9-1.4-3.9     C28.5-2.9,24,1.1,24,1.1s-4.5-4-8.1,3.4c0,0-0.9,1.9-1.4,3.9c-0.4,1.7-1,3.5-1.8,5.1c-1,2.1-1.9,5.2,0.3,7.6L13,18.3z M24,25.9     c-3,0-5.5-2.8-6-6.7c-0.1-0.7,0-1.3,0.3-1.9c0.6-1.3,1.5-3.3,1.8-5.7c0.1-0.6,0.4-1.2,0.9-1.6c0,0,2.4-2,4.1-1.8     c0.7,0.1,3.4,0.4,3.5,2.8l0.1,0.4c0.9,1.6,1.3,3.7,1.4,6.4C30.1,22.3,27.3,25.9,24,25.9z"/></g></g><g><path d="M24,29.7c-1.8,0-3.5-0.6-5-1.6h-1.1l2.3,7.7h7.5l2.3-7.7h-1.2C27.4,29.1,25.8,29.7,24,29.7z"/><path d="M6.4,42.3c1.7,1.3,3.6,2.3,5.6,3.2V39H6.4V42.3z"/><path d="M33.9,28.1h-1.8l-2.9,9.6H18.8l-2.9-9.6h-1.8c-4.3,0-7.7,3.4-7.7,7.7v1.3h7.5v9.1C17.1,47.4,20.5,48,24,48    s6.9-0.6,10.1-1.8v-9.1h7.5v-1.3C41.6,31.6,38.1,28.1,33.9,28.1z"/><path d="M36,45.5c2-0.9,3.9-2,5.6-3.2V39H36V45.5z"/></g></g></g>
            <g id="SvgjsG1124" featureKey="text1" fill="#fff" 
            transform="matrix(4.892966627229979,0,0,4.892966627229979,96.96635891792471,-45.97553616234046)"><path d="M4.26 22.040000000000003 l1.38 0 l0 3.4 q0 1.44 -0.57 2.13 t-1.83 0.69 q-2.62 0 -2.62 -2.78 l0 -11.2 q0 -2.84 2.62 -2.84 q2.4 0 2.4 2.8 l0 2.92 l-1.38 0 l0 -2.9 q0 -0.66 -0.22 -0.97 t-0.8 -0.31 q-1.08 0 -1.08 1.28 l0 11.2 q0 1.3 1.08 1.3 q0.56 0 0.79 -0.32 t0.23 -0.98 l0 -3.42 z M6.8 17.980000000000004 q0 -1.2 0.56 -1.84 t1.72 -0.64 q1.14 0 1.71 0.64 t0.57 1.84 l0 7.82 q0 1.2 -0.57 1.83 t-1.71 0.63 q-1.16 0 -1.72 -0.63 t-0.56 -1.83 l0 -7.82 z M10.02 18.020000000000003 q0 -0.52 -0.19 -0.81 t-0.75 -0.29 t-0.75 0.29 t-0.19 0.81 l0 7.78 q0 0.52 0.19 0.79 t0.75 0.27 t0.75 -0.28 t0.19 -0.82 l0 -7.74 z M15.92 17.720000000000002 q-0.34 -0.82 -1.08 -0.82 q-0.46 0 -0.66 0.23 t-0.2 0.79 l0 7.8 q0 0.58 0.2 0.81 t0.66 0.23 q0.74 0 1.08 -0.82 l0 -8.22 z M16.12 28.080000000000002 q-0.02 -0.22 -0.03 -0.45 t-0.01 -0.47 q-0.22 0.5 -0.63 0.78 t-1.09 0.28 q-1.76 0 -1.76 -2.32 l0 -8.12 q0 -1.22 0.43 -1.75 t1.39 -0.53 q0.48 0 0.87 0.22 t0.63 0.58 l0 -4.68 l1.36 0 l0 16.46 l-1.16 0 z M18.82 14.120000000000001 l0 -2.5 l1.38 0 l0 2.5 l-1.38 0 z M18.82 28.080000000000002 l0 -12.38 l1.38 0 l0 12.38 l-1.38 0 z M24.96 28.080000000000002 l0 -10.22 q0 -0.54 -0.18 -0.77 t-0.62 -0.23 q-0.3 0 -0.6 0.18 t-0.46 0.58 l0 10.46 l-1.38 0 l0 -12.38 l1.16 0 q0.06 0.46 0.06 0.94 q0.28 -0.52 0.74 -0.83 t1.04 -0.31 q0.84 0 1.23 0.54 t0.39 1.74 l0 10.3 l-1.38 0 z M31 26.720000000000002 q-0.22 0.36 -0.63 0.57 t-0.93 0.21 q-0.96 0 -1.38 -0.52 t-0.42 -1.74 l0 -7.34 q0 -1.2 0.45 -1.76 t1.31 -0.56 q0.64 0 1.05 0.27 t0.67 0.79 q0 -0.24 0.01 -0.48 t0.03 -0.46 l1.16 0 l0 13.02 q0 1.14 -0.55 1.74 t-1.71 0.6 q-0.64 0 -1.08 -0.16 t-0.7 -0.46 t-0.37 -0.73 t-0.11 -0.99 l0 -0.5 l1.24 0 l0 0.56 q0 1.08 1 1.08 q0.96 0 0.96 -1.08 l0 -2.06 z M31 17.86 q-0.16 -0.4 -0.46 -0.61 t-0.66 -0.21 q-0.52 0 -0.7 0.25 t-0.18 0.69 l0 7.22 q0 0.52 0.19 0.75 t0.69 0.23 q0.36 0 0.66 -0.2 t0.46 -0.6 l0 -7.52 z M37.46 14.460000000000003 q0 -0.62 -0.27 -0.96 t-0.81 -0.34 l-1.04 0 l0 13.42 l1.04 0 q1.08 0 1.08 -1.3 l0 -10.82 z M33.82 28.080000000000002 l0 -16.46 l2.56 0 q1.32 0 1.96 0.75 t0.64 2.07 l0 10.84 q0 2.8 -2.6 2.8 l-2.56 0 z M40.38 14.120000000000001 l0 -2.5 l1.38 0 l0 2.5 l-1.38 0 z M40.38 28.080000000000002 l0 -12.38 l1.38 0 l0 12.38 l-1.38 0 z M44.56 28.080000000000002 l-1.8 -12.38 l1.38 0 q0.16 1.12 0.33 2.44 t0.33 2.58 t0.28 2.31 t0.18 1.65 q0.06 -0.6 0.19 -1.65 t0.31 -2.31 t0.37 -2.58 t0.37 -2.44 l1.32 0 l-1.88 12.38 l-1.38 0 z M51.879999999999995 28.080000000000002 q-0.08 -0.26 -0.08 -0.74 q-0.5 0.92 -1.48 0.92 q-0.84 0 -1.31 -0.46 t-0.47 -1.5 l0 -1.82 q0 -0.9 0.25 -1.51 t0.68 -1.03 t1.01 -0.71 t1.24 -0.57 l0 -2.7 q0 -0.52 -0.19 -0.8 t-0.71 -0.28 q-0.54 0 -0.72 0.28 t-0.18 0.8 l0 2.6 l-1.22 0 l0 -2.62 q0 -1.22 0.51 -1.83 t1.65 -0.61 q2.18 0 2.18 2.44 l0 8.72 q0 0.44 0.02 0.82 t0.08 0.6 l-1.26 0 z M51.72 21.76 q-0.6 0.22 -0.97 0.48 t-0.56 0.59 t-0.25 0.76 t-0.06 0.99 l0 1.32 q0 1.02 0.94 1.02 q0.3 0 0.55 -0.18 t0.35 -0.6 l0 -4.38 z"/></g>
			</g>
		</svg>